<?xml version="1.0" encoding="utf-8"?>
<!-- Generator: Adobe Illustrator 25.2.0, SVG Export Plug-In . SVG Version: 6.00 Build 0)  -->
<svg version="1.1" id="Layer_1" xmlns="http://www.w3.org/2000/svg" xmlns:xlink="http://www.w3.org/1999/xlink" x="0px" y="0px"
	 viewBox="0 0 32 32" style="enable-background:new 0 0 32 32;" xml:space="preserve">
<style type="text/css">
	.st0{fill:#186505;}
</style>
<g>
	<path class="st0" d="M12.9,4.7v1.7c-2.5,0.9-4.4,2.2-5.9,4.1C5.7,12.2,5,14.1,5,16.1c0,0.4,0.1,0.7,0.2,1c0.1,0.1,0.2,0.2,0.3,0.2
		c0.1,0,0.3-0.1,0.5-0.2c0.8-0.5,1.7-0.8,2.9-0.8c1.4,0,2.6,0.5,3.6,1.6s1.6,2.3,1.6,3.8c0,1.5-0.6,2.9-1.8,4
		c-1.2,1.2-2.7,1.7-4.4,1.7c-2,0-3.7-0.8-5.2-2.3c-1.5-1.6-2.2-3.7-2.2-6.3c0-3.1,1-5.8,3-8.2C5.5,8.1,8.7,6.1,12.9,4.7z M30.2,4.7
		v1.7c-2.5,0.9-4.4,2.2-5.9,4.1c-1.4,1.8-2.1,3.8-2.1,5.8c0,0.4,0.1,0.7,0.2,1c0.1,0.1,0.2,0.2,0.3,0.2c0.1,0,0.3-0.1,0.5-0.2
		c0.8-0.5,1.7-0.8,2.9-0.8c1.4,0,2.6,0.5,3.6,1.6s1.6,2.3,1.6,3.8c0,1.5-0.6,2.9-1.8,4c-1.2,1.2-2.7,1.7-4.4,1.7
		c-2,0-3.7-0.8-5.2-2.3c-1.5-1.6-2.2-3.7-2.2-6.3c0-3.1,1-5.8,3-8.2C22.8,8.1,25.9,6.1,30.2,4.7z"/>
</g>
</svg>
